<svg viewBox="0 0 500 500" xmlns="http://www.w3.org/2000/svg"><g fill="none" fill-rule="evenodd" transform="translate(8 118)"><path d="m105.32 253.3v-50.757l-44.96-3.299h-35.705l-15.206-20.433v-34.94-50.1-44.825-22.414l11.239-9.888 21.82-8.567h81.33l267.79 3.295 54.07-3.295 23.958 9.888 5.288 41.09v71.63l-4.626 59.989-11.902 8.567-254.56 2.638-98.52 51.42" fill="#fff"/><g fill="#3a3b3b"><path d="m104.42 264.01c-1.436 0-2.868-.396-4.13-1.175-2.313-1.428-3.713-3.947-3.709-6.661l.115-47.546h-51.776c-31.904 0-44.917-12.969-44.917-44.773v-119.08c0-31.808 13.01-44.781 44.917-44.781h395.83c35.38 0 42.3 16.418 42.3 44.781v119.06c0 31.804-13.01 44.781-44.913 44.781h-220.66l-109.57 54.57c-1.099.538-2.305.819-3.499.819m-59.5-248.38c-23.22 0-29.24 5.996-29.24 29.15v119.06c0 23.15 6.02 29.15 29.24 29.15h59.64c2.075 0 4.078.827 5.542 2.294 1.472 1.467 2.293 3.461 2.289 5.533l-.103 42.712 99.85-49.709c1.083-.55 2.281-.827 3.503-.827h222.5c23.22 0 29.24-5.996 29.24-29.15v-119.08c0-12.574-1.504-19.863-4.876-23.648-2.091-2.365-6.641-5.506-21.744-5.506h-395.84"/><path d="m47.737 78.03h-29.26v-72.27c-2.975-.49-5.836-.736-8.577-.736-2.662 0-5.447.245-8.343.736v87.62h46.17c.238-1.388.393-2.709.468-3.963.075-1.25.119-2.547.119-3.844 0-1.131-.044-2.334-.119-3.587-.071-1.258-.226-2.571-.464-3.959m-.587-41.19c0 1.056.06 2.175.175 3.35.115 1.179.29 2.298.528 3.354h7.867v49.848c2.817.494 5.526.744 8.105.744 2.666 0 5.403-.245 8.224-.744v-63.01h-24.2c-.46 2.116-.694 4.268-.694 6.463m10.454-16.572c1.567.083 2.975.119 4.225.119 1.329 0 2.761-.04 4.289-.119 1.531-.083 2.956-.245 4.289-.49.238-1.38.393-2.761.468-4.145.083-1.38.119-2.721.119-4.02 0-1.38-.04-2.741-.119-4.082-.079-1.341-.234-2.701-.468-4.082-1.333-.245-2.785-.423-4.348-.55-1.571-.123-3.02-.182-4.348-.182-1.254 0-2.646.059-4.174.182-1.527.123-2.956.305-4.285.55-.468 2.848-.71 5.565-.71 8.164 0 2.682.242 5.403.71 8.164 1.337.245 2.785.411 4.352.494m73.73 9.504c-1.527-.083-2.884-.123-4.054-.123-1.488 0-2.975.063-4.463.182-1.488.123-2.896.305-4.225.55l-13.04 46.921-13.278-46.921c-1.337-.324-2.781-.526-4.352-.605-1.567-.083-3.134-.123-4.701-.123-1.174 0-2.567.044-4.17.123-1.607.083-3.352.324-5.229.732l22.673 62.765c1.333.324 2.741.526 4.229.609 1.488.083 2.821.111 3.995.111 1.091 0 2.468-.04 4.114-.111 1.646-.083 3.213-.245 4.701-.494l23.03-62.88c-1.96-.411-3.701-.653-5.229-.736m58.1 17.367c-1.174-3.698-2.916-6.886-5.225-9.568-2.309-2.682-5.11-4.794-8.399-6.34-3.293-1.543-7.05-2.314-11.279-2.314-4.86 0-9.105.874-12.751 2.618-3.642 1.748-6.697 4.125-9.164 7.131-2.468 3.01-4.328 6.542-5.582 10.604-1.25 4.062-1.88 8.409-1.88 13.04 0 4.715.607 9.06 1.821 13.04 1.214 3.983 3.094 7.416 5.641 10.299 2.543 2.883 5.832 5.146 9.87 6.767 4.03 1.622 8.867 2.432 14.508 2.432 7.677 0 14.568-1.218 20.677-3.659-.083-2.591-.432-5.03-1.063-7.317-.627-2.27-1.373-4.224-2.23-5.85-2.507.973-5.153 1.732-7.934 2.247-2.781.534-5.506.795-8.168.795-4.856 0-8.772-1.096-11.747-3.295-2.975-2.191-4.622-5.727-4.935-10.604h39.01c.159-.894.294-2.088.413-3.591.119-1.503.179-3.03.179-4.572.008-4.208-.583-8.168-1.757-11.866m-37.712 7.982c.397-4.145 1.607-7.353 3.642-9.631 2.035-2.278 5.02-3.413 8.93-3.413 3.448 0 6.125 1.202 8.05 3.595 1.912 2.397 2.956 5.545 3.114 9.449h-23.736" transform="translate(31.738 55.37)"/></g><path d="m58.719 76.81c-2.741.973-5.209 1.669-7.403 2.073-2.19.407-4.733.597-7.637.597-16.218 0-24.323-9.908-24.323-29.735 0-9.991 2.02-17.53 6.05-22.608 4.04-5.075 9.811-7.618 17.325-7.618 2.892 0 5.407.206 7.522.609 2.115.407 4.546 1.096 7.284 2.069.936-2.357 1.805-4.691 2.587-7 .778-2.314 1.246-4.695 1.404-7.131-3.69-1.543-7.109-2.555-10.291-3.049-3.17-.486-6.633-.732-10.398-.732-6.348 0-11.993 1.139-16.968 3.413-4.975 2.274-9.168 5.442-12.568 9.504-3.408 4.062-6.02 8.876-7.819 14.441-1.797 5.565-2.702 11.601-2.702 18.1 0 6.502.861 12.514 2.587 18.04 1.722 5.525 4.289 10.299 7.688 14.322 3.404 4.03 7.617 7.155 12.632 9.386 5.02 2.231 10.838 3.354 17.507 3.354 3.753 0 7.264-.245 10.509-.736 3.245-.486 6.911-1.499 10.993-3.049-.313-2.432-.801-4.857-1.468-7.254-.659-2.369-1.5-4.711-2.511-6.985m42.874-47.898c-2.424 0-4.578.324-6.459.973-1.884.653-3.487 1.444-4.816 2.381-1.333.929-2.452 1.906-3.36 2.923-.905 1.016-1.619 1.891-2.17 2.618v-33.517c-1.404-.245-2.821-.407-4.225-.486-1.408-.079-2.781-.123-4.11-.123-1.333 0-2.706.044-4.11.123-1.408.079-2.781.245-4.114.486v89.21c1.408.245 2.797.407 4.177.486 1.373.083 2.725.123 4.051.123 1.325 0 2.702-.051 4.11-.123 1.404-.083 2.821-.245 4.225-.486v-33.15c0-3.413.377-6.178 1.115-8.29.746-2.112 1.682-3.757 2.821-4.936 1.131-1.179 2.404-1.97 3.82-2.381 1.404-.403 2.773-.605 4.106-.605 3.221 0 5.487 1.179 6.82 3.536 1.333 2.357 1.992 5.727 1.992 10.117v35.708c1.412.245 2.829.407 4.229.486 1.404.083 2.781.123 4.11.123 1.333 0 2.71-.051 4.114-.123 1.404-.083 2.821-.245 4.221-.486v-40.34c0-8.369-1.738-14.504-5.221-18.404-3.475-3.9-8.581-5.85-15.325-5.85m49.23 0c-2.975 0-6.193.285-9.64.854-3.44.57-6.887 1.459-10.331 2.682 0 2.599.27 4.833.821 6.7.551 1.871 1.373 3.864 2.468 5.972 4.777-1.709 9.283-2.555 13.508-2.555 1.956 0 3.737.119 5.348.364 1.611.245 2.956.716 4.051 1.4 1.099.692 1.96 1.645 2.587 2.868.619 1.218.932 2.8.932 4.754v1.459c-2.737-.245-5.245-.368-7.522-.368-3.138 0-6.268.348-9.398 1.04-3.138.688-5.975 1.827-8.514 3.409-2.547 1.582-4.622 3.698-6.229 6.34-1.603 2.642-2.396 5.909-2.396 9.805 0 3.9.639 7.191 1.932 9.872 1.293 2.69 3.13 4.869 5.53 6.581 2.388 1.717 5.241 2.927 8.573 3.655 3.328.744 6.994 1.096 10.985 1.096 4.935 0 9.359-.407 13.282-1.218 3.912-.811 7.244-1.669 9.993-2.559v-36.562c0-8.939-2.289-15.433-6.871-19.503-4.594-4.054-10.961-6.087-19.11-6.087m9.755 51.679c-.861.162-1.884.348-3.059.55-1.178.21-2.349.301-3.527.301-1.02 0-2.214-.063-3.578-.178-1.373-.123-2.666-.447-3.884-.981-1.222-.526-2.245-1.357-3.106-2.496-.869-1.135-1.293-2.757-1.293-4.869 0-3.172 1.111-5.466 3.348-6.886 2.23-1.42 5.268-2.136 9.113-2.136.861 0 1.837.067 2.928.186 1.095.119 2.115.261 3.059.423v16.09m58.62 3.706c-.234-1.661-.619-3.267-1.17-4.817-.869.162-1.861.352-2.999.562-1.131.202-2.285.301-3.463.301-1.488 0-2.781-.162-3.884-.486-1.091-.324-2.02-.933-2.757-1.831-.742-.898-1.309-2.108-1.706-3.659-.401-1.543-.587-3.572-.587-6.091v-24.744h14.218c.242-1.297.401-2.476.472-3.536.083-1.056.115-2.152.115-3.291 0-1.056-.052-2.069-.115-3.049-.083-.973-.242-2.069-.472-3.291h-14.218v-18.4h-2.702l-21.97 29.13.583 2.436h7.641v28.517c0 7.804 1.88 13.432 5.637 16.881 3.761 3.461 9.2 5.189 16.333 5.189 3.836 0 7.55-.447 11.156-1.345.083-.574.135-1.159.179-1.768.04-.601.067-1.361.067-2.247.008-1.305-.119-2.788-.357-4.458" transform="translate(226.13 55.37)" fill="#f15a22"/></g></svg>